{"asset":{"version":"2.0","generator":"THREE.JS GLTFExporter"},"scenes":[{"nodes":[0],"name":"AuxScene"}],"scene":0,"nodes":[{"mesh":0}],"meshes":[{"primitives":[{"mode":4,"attributes":{"POSITION":0,"NORMAL":1},"material":0}]}],"materials":[{"pbrMetallicRoughness":{"baseColorFactor":[0.5019607843137255,0.5019607843137255,0.5019607843137255,1],"metallicFactor":0,"roughnessFactor":1}}],"accessors":[{"bufferView":0,"componentType":5126,"count":6,"max":[1.7999999523162842,0.20000000298023224,1.7999999523162842],"min":[-1.600000023841858,0.20000000298023224,-1.600000023841858],"type":"VEC3"},{"bufferView":1,"componentType":5126,"count":6,"max":[0,1,0],"min":[0,1,0],"type":"VEC3"}],"bufferViews":[{"buffer":0,"byteOffset":0,"byteLength":72,"byteStride":12,"target":34962},{"buffer":0,"byteOffset":72,"byteLength":72,"byteStride":12,"target":34962}],"buffers":[{"byteLength":144,"uri":"data:application/octet-stream;base64,"}]}