{
    "accessors" : [
        {
            "bufferView" : 0,
            "componentType" : 5121,
            "count" : 123,
            "max" : [
                120
            ],
            "min" : [
                0
            ],
            "type" : "SCALAR"
        },
        {
            "bufferView" : 1,
            "componentType" : 5126,
            "count" : 121,
            "max" : [
                4.897451877593994,
                4.394085884094238,
                3.1890578269958496
            ],
            "min" : [
                -5.902548789978027,
                1.7940857410430908,
                -7.610942840576172
            ],
            "type" : "VEC3"
        },
        {
            "bufferView" : 2,
            "componentType" : 5126,
            "count" : 121,
            "max" : [
                0.6801303625106812,
                1.0,
                0.745043158531189
            ],
            "min" : [
                -0.6658473610877991,
                0.47979432344436646,
                -0.5547002553939819
            ],
            "type" : "VEC3"
        }
    ],
    "asset" : {
        "generator" : "Khronos Blender glTF 2.0 exporter",
        "version" : "2.0"
    },
    "bufferViews" : [
        {
            "buffer" : 0,
            "byteLength" : 123,
            "byteOffset" : 0,
            "target" : 34963
        },
        {
            "buffer" : 0,
            "byteLength" : 1452,
            "byteOffset" : 124,
            "target" : 34962
        },
        {
            "buffer" : 0,
            "byteLength" : 1452,
            "byteOffset" : 1576,
            "target" : 34962
        }
    ],
    "buffers" : [
        {
            "byteLength" : 3028,
            "uri" : "hills-nav.bin"
        }
    ],
    "meshes" : [
        {
            "name" : "Navmesh.002",
            "primitives" : [
                {
                    "attributes" : {
                        "NORMAL" : 2,
                        "POSITION" : 1
                    },
                    "indices" : 0
                }
            ]
        }
    ],
    "nodes" : [
        {
            "mesh" : 0,
            "name" : "Navmesh"
        }
    ],
    "scene" : 0,
    "scenes" : [
        {
            "name" : "Scene",
            "nodes" : [
                0
            ]
        }
    ]
}
